<svg id="ghU65PZUG9" viewBox="0 0 369.89473684210526 63.56911127619035" height="63.56911127619035" width="369.89473684210526" style="width: 369.895px; height: 63.5691px; position: absolute; top: 50%; left: 50%; transform: translate(-50%, -50%) scale(0.590438); z-index: 0; cursor: pointer; overflow: visible;"><defs id="SvgjsDefs1278"></defs><g id="SvgjsG1279" featurekey="5TMTKC-0" transform="matrix(3.0701754093170166,0,0,3.0701754093170166,0,-24.842105263157897)" fill="#ffe3b0"><g xmlns="http://www.w3.org/2000/svg" transform="translate(-270 -140)"><g xmlns="http://www.w3.org/2000/svg" xmlns:xlink="http://www.w3.org/1999/xlink"><path d="M279,161c-0.736,0-1.375,0.405-1.722,1c-0.172,0.295-0.278,0.635-0.278,1c0,1.102,0.897,2,2,2c1.103,0,2-0.898,2-2    c0-0.365-0.105-0.705-0.278-1C280.375,161.405,279.737,161,279,161z"></path><path d="M293,161c-0.736,0-1.375,0.405-1.722,1c-0.172,0.295-0.278,0.635-0.278,1c0,1.102,0.897,2,2,2c1.103,0,2-0.898,2-2    c0-0.365-0.105-0.705-0.278-1C294.375,161.405,293.737,161,293,161z"></path><path d="M299,159v-1l-6-1.715L286,152h-11v1h6v1h-11v1h12v1h-10v1h5v1h-2v1h-4v1h5v1h-1v1h-3v1h4c0-0.352,0.072-0.686,0.184-1    c0.414-1.162,1.512-2,2.816-2c1.305,0,2.402,0.838,2.816,2c0.111,0.314,0.184,0.648,0.184,1h8c0-0.352,0.072-0.686,0.184-1    c0.414-1.162,1.512-2,2.816-2c1.305,0,2.402,0.838,2.816,2c0.111,0.314,0.184,0.648,0.184,1h3v-1h1v-3H299z"></path></g></g></g><g id="SvgjsG1280" featurekey="7UBp9i-0" transform="matrix(3.5473830699920654,0,0,3.5473830699920654,109.30399060805642,-20.29103029644681)" fill="#f5c8bd"><path d="M6.04 9.38 c1.4 0 2.54 0.35664 3.42 1.07 s1.36 1.6633 1.44 2.85 l-2.78 0 c-0.18666 -1.1867 -0.88666 -1.78 -2.1 -1.78 c-0.74666 0 -1.3367 0.30666 -1.77 0.92 s-0.65 1.4267 -0.65 2.44 c0 0.97334 0.20666 1.76 0.62 2.36 s0.99334 0.9 1.74 0.9 c1.2933 0 2.0466 -0.7 2.26 -2.1 l2.74 0 c-0.18666 1.3733 -0.71666 2.4234 -1.59 3.15 s-2.0034 1.09 -3.39 1.09 c-1.5333 0 -2.7866 -0.49 -3.76 -1.47 s-1.46 -2.2566 -1.46 -3.83 c0 -1.7067 0.48 -3.0666 1.44 -4.08 s2.24 -1.52 3.84 -1.52 z M17.32 9.38 c3.0134 0.01334 4.52 0.9933 4.52 2.94 l0 5.48 c0 1.0133 0.12 1.7467 0.36 2.2 l-2.88 0 c-0.10666 -0.32 -0.17332 -0.65334 -0.19998 -1 c-0.84 0.85334 -2 1.28 -3.48 1.28 c-1.08 0 -1.9367 -0.27334 -2.57 -0.82 s-0.95 -1.3067 -0.95 -2.28 c0 -0.94666 0.3 -1.68 0.9 -2.2 c0.61334 -0.54666 1.7267 -0.89332 3.34 -1.04 c1.1467 -0.12 1.8733 -0.27 2.18 -0.45 s0.46 -0.45666 0.46 -0.83 c0 -0.46666 -0.14 -0.81332 -0.42 -1.04 s-0.74666 -0.34 -1.4 -0.34 c-0.6 0 -1.0533 0.12334 -1.36 0.37 s-0.48666 0.64332 -0.54 1.19 l-2.84 0 c0.06666 -1.1333 0.53332 -1.9933 1.4 -2.58 s2.0266 -0.88 3.48 -0.88 z M14.96 17.06 c0 0.88 0.58 1.32 1.74 1.32 c1.52 -0.01334 2.2866 -0.79334 2.3 -2.34 l0 -1.1 c-0.22666 0.22666 -0.8 0.39332 -1.72 0.49998 c-0.8 0.09334 -1.3867 0.25668 -1.76 0.49002 s-0.56 0.61 -0.56 1.13 z M30.080000000000002 9.38 c0.24 0 0.44668 0.03334 0.62002 0.1 l0 2.64 c-0.30666 -0.06666 -0.64666 -0.1 -1.02 -0.1 c-1.8667 0 -2.8 1.1067 -2.8 3.32 l0 4.66 l-2.84 0 l0 -10.34 l2.7 0 l0 1.92 l0.04 0 c0.28 -0.66666 0.72334 -1.2 1.33 -1.6 s1.2633 -0.6 1.97 -0.6 z M36.72 13.32 l0 2.44 l-6.02 0 l0 -2.44 l6.02 0 z M41.7 5.720000000000001 l0 5.38 l0.06 0 c0.32 -0.53334 0.75334 -0.95334 1.3 -1.26 s1.1267 -0.46 1.74 -0.46 c1.32 0 2.2766 0.33334 2.87 1 s0.89 1.72 0.89 3.16 l0 6.46 l-2.84 0 l0 -5.88 c0 -0.84 -0.13666 -1.4667 -0.41 -1.88 s-0.74334 -0.62 -1.41 -0.62 c-0.76 0 -1.3167 0.23 -1.67 0.69 s-0.53 1.2167 -0.53 2.27 l0 5.42 l-2.84 0 l0 -14.28 l2.84 0 z M55.74 9.38 c1.6533 0 2.96 0.50334 3.92 1.51 s1.44 2.3234 1.44 3.95 c0 1.64 -0.49 2.9566 -1.47 3.95 s-2.2766 1.49 -3.89 1.49 c-1.64 0 -2.94 -0.50334 -3.9 -1.51 s-1.44 -2.3166 -1.44 -3.93 c0 -1.6667 0.49 -2.9934 1.47 -3.98 s2.27 -1.48 3.87 -1.48 z M53.24 14.84 c0 1.0533 0.21334 1.8666 0.64 2.44 s1.0467 0.86 1.86 0.86 c0.84 0 1.47 -0.29334 1.89 -0.88 s0.63 -1.3933 0.63 -2.42 c0 -1.0667 -0.21666 -1.8867 -0.65 -2.46 s-1.0633 -0.86 -1.89 -0.86 c-0.8 0 -1.4133 0.28666 -1.84 0.86 s-0.64 1.3933 -0.64 2.46 z M68.76 9.38 c1.4267 0 2.5666 0.5 3.42 1.5 s1.28 2.3534 1.28 4.06 c0 1.56 -0.41 2.84 -1.23 3.84 s-1.9233 1.5 -3.31 1.5 c-1.36 0 -2.3934 -0.52 -3.1 -1.56 l-0.04 0 l0 4.92 l-2.84 0 l0 -13.98 l2.7 0 l0 1.32 l0.04 0 c0.68 -1.0667 1.7067 -1.6 3.08 -1.6 z M65.67999999999999 14.86 c0 1.0133 0.21336 1.8133 0.64002 2.4 s1.04 0.88 1.84 0.88 c0.82666 0 1.4433 -0.29334 1.85 -0.88 s0.61 -1.3867 0.61 -2.4 c0 -1.04 -0.22 -1.8567 -0.66 -2.45 s-1.0533 -0.89 -1.84 -0.89 s-1.39 0.29334 -1.81 0.88 s-0.63 1.4067 -0.63 2.46 z"></path></g></svg>
